# xmcd
#
# Track frame offsets:
#	150
#	16085
#	29645
#	44920
#	61367
#	77901
#	97378
#	115068
#	128805
#	145683
#	163284
#	179876
#	197885
#	214321
#	231091
#	243096
#	265955
#	284249
#	302837
#	323490
#
# Disc length: 4623 seconds
#
# Revision: 4
# Processed by: cddbd v1.5.1PL2 Copyright (c) Steve Scherf et al.
# Submitted via: Rip'N'TagIt 1.3.0.1 
#
DISCID=3b120d14
DTITLE=Various Artist - Ministry of Sound-Late Night Session [CD1)
DYEAR=2003
DGENRE=blues
TTITLE0=Eple
TTITLE1=Get Down Saturday Night
TTITLE2=Magic Love
TTITLE3=Familiar Feeling
TTITLE4=It Will Be
TTITLE5=F.E.A.R
TTITLE6=Things We Do
TTITLE7=Sunday (The Day Before My Birthday)
TTITLE8=Modial Mile
TTITLE9=Roads Must Roll
TTITLE10=Low Sun
TTITLE11=Grass Roots Horizon
TTITLE12=The Further I Slide
TTITLE13=Transformation Fantasy
TTITLE14=Smokebelch II (Beatless Mix)
TTITLE15=Stars
TTITLE16=The Hope Trilogy
TTITLE17=Drowsy With Hope
TTITLE18=Rock Creek Park
TTITLE19=I Am The Black Gold Of The Sun (4 Hero Mix)
EXTD=YEAR: 2003
EXTT0=
EXTT1=
EXTT2=
EXTT3=
EXTT4=
EXTT5=
EXTT6=
EXTT7=
EXTT8=
EXTT9=
EXTT10=
EXTT11=
EXTT12=
EXTT13=
EXTT14=
EXTT15=
EXTT16=
EXTT17=
EXTT18=
EXTT19=
PLAYORDER=
